<svg version="1.1" id="Layer_1" xmlns="http://www.w3.org/2000/svg" xmlns:xlink="http://www.w3.org/1999/xlink" x="0px" y="0px"
	 width="100%" viewBox="0 0 496 496" enable-background="new 0 0 496 496" xml:space="preserve">
<path fill="#000000" opacity="1.000000" stroke="none" 
	d="
M497.000000,287.531342 
	C492.845978,306.403778 487.539917,324.430237 478.540710,341.126343 
	C447.910126,397.954926 401.132446,433.249176 337.720947,446.032715 
	C328.612305,447.869019 319.338928,449.165558 309.985840,449.261841 
	C303.990204,449.323578 301.254852,446.979462 301.069031,441.009674 
	C300.825470,433.185913 300.840363,425.340393 301.127869,417.518311 
	C301.342285,411.685608 303.172638,410.056854 309.161621,409.642242 
	C342.798401,407.313385 373.343353,396.619965 399.783844,375.453339 
	C432.663757,349.131683 453.366394,315.229553 458.569489,273.306305 
	C466.985596,205.494781 440.976501,153.061874 384.333282,115.686401 
	C367.334747,104.470116 348.143494,98.143829 328.113525,94.532387 
	C322.926788,93.597198 322.088165,94.391563 322.054657,99.928986 
	C322.003235,108.428062 322.206940,116.933083 321.957458,125.425446 
	C321.661041,135.515442 315.611084,138.839813 306.924561,133.832077 
	C276.615173,116.358917 246.318726,98.863205 216.048782,81.321838 
	C206.357819,75.705948 206.560913,68.897530 216.377975,63.231407 
	C245.814682,46.241398 275.224274,29.204433 304.651367,12.197732 
	C306.236176,11.281845 307.833832,10.357796 309.511810,9.639017 
	C315.578796,7.040189 320.802979,9.700350 321.570038,16.267511 
	C322.712250,26.046759 321.912018,35.906178 322.018494,45.730183 
	C322.104492,53.665157 322.076172,53.411442 329.747559,54.666595 
	C401.859497,66.465225 452.989624,105.899055 483.758026,171.979507 
	C489.897705,185.165527 493.511841,199.185303 496.881348,213.650299 
	C497.000000,238.354233 497.000000,262.708466 497.000000,287.531342 
z"/>
<path fill="#000000" opacity="1.000000" stroke="none" 
	d="
M67.543831,398.465698 
	C34.463547,368.041321 12.665681,331.279449 5.341082,287.290466 
	C-7.134181,212.368423 15.590287,149.193832 72.867233,99.133224 
	C102.808022,72.964691 138.392731,58.856270 177.679184,53.863876 
	C182.788376,53.214611 187.959305,52.983624 193.110336,52.751659 
	C197.470505,52.555317 200.157562,54.868374 200.577789,59.142574 
	C201.459091,68.106628 201.266174,77.112198 200.690765,86.083450 
	C200.432083,90.116516 197.848495,92.138596 193.680481,92.406639 
	C173.927841,93.676926 154.669052,97.403442 136.659027,105.824120 
	C83.855064,130.512878 52.161148,171.500610 43.280926,229.289368 
	C30.669384,311.360016 87.108185,391.865967 172.965469,407.443573 
	C174.908188,407.796021 176.921890,407.757294 178.868912,407.898590 
	C180.577530,405.662842 179.934189,403.241882 179.968704,401.010071 
	C180.092392,393.013245 179.840103,385.007141 180.101715,377.016724 
	C180.457825,366.139557 186.150421,363.043915 195.557037,368.462891 
	C226.015045,386.009125 256.457947,403.581665 286.881714,421.187195 
	C295.191406,425.995789 295.206055,433.119354 286.804474,437.999329 
	C255.980911,455.902893 225.118927,473.740723 194.219971,491.513885 
	C186.693954,495.842896 180.314499,492.329468 180.061447,483.634216 
	C179.790100,474.310699 180.020874,464.972778 180.019852,455.641144 
	C180.019058,448.393951 180.020615,448.310852 173.153305,447.465912 
	C149.909378,444.606018 128.103302,437.293854 107.453491,426.378693 
	C93.098244,418.790710 79.859962,409.593353 67.543831,398.465698 
z"/>
<path fill="#000000" opacity="1.000000" stroke="none" 
	d="
M269.654480,255.102509 
	C267.512939,237.691376 269.134369,221.136810 275.301697,205.148865 
	C281.833313,188.216431 294.771973,180.056900 312.426117,178.746231 
	C318.746552,178.276993 325.061249,178.690430 331.264435,180.146774 
	C347.592529,183.980179 356.850128,195.069870 361.336395,210.442688 
	C367.581329,231.841873 367.747040,253.456726 361.123413,274.783722 
	C354.232758,296.970673 338.145538,307.911346 311.290985,305.678619 
	C284.971191,303.490417 274.749084,285.190277 270.691193,262.948181 
	C270.244965,260.502472 270.003937,258.019318 269.654480,255.102509 
M331.705170,269.110687 
	C337.841156,252.090393 337.300903,234.844528 332.529449,217.761307 
	C330.297852,209.771484 324.903809,207.068008 315.924408,207.334167 
	C308.558746,207.552475 304.095184,211.185898 301.649628,218.966049 
	C298.599548,228.669525 299.257874,238.667206 299.227570,248.623413 
	C299.209747,254.480804 299.653503,260.249756 301.587494,265.803162 
	C303.924561,272.514008 308.474762,276.856354 315.723389,277.433594 
	C322.294891,277.956909 327.839752,275.778290 331.705170,269.110687 
z"/>
<path fill="#000000" opacity="1.000000" stroke="none" 
	d="
M250.981918,254.498657 
	C252.142014,261.865784 252.283478,268.846802 250.921158,275.740601 
	C247.327637,293.925110 232.207809,306.648590 213.501892,307.276520 
	C209.187851,307.421326 204.789673,307.538788 200.546478,306.898438 
	C178.828049,303.620728 168.721848,293.155975 164.133987,268.147095 
	C160.684296,249.342499 160.869247,230.411789 165.625595,211.767395 
	C171.745010,187.779999 188.520264,176.928223 213.197388,179.248459 
	C229.598083,180.790497 244.276062,191.569092 247.879440,210.495697 
	C248.631119,214.443848 248.139130,216.549927 243.478210,216.377594 
	C237.325363,216.150070 231.156372,216.239182 224.997330,216.353973 
	C222.153366,216.406967 220.344589,215.642654 219.454727,212.629761 
	C217.663437,206.564774 213.072098,203.672256 207.047394,203.715012 
	C201.068634,203.757416 195.925797,206.126740 193.270142,211.945480 
	C190.187668,218.699310 188.905014,225.830566 189.426010,234.189087 
	C200.850510,225.214157 213.037003,222.520126 226.568619,226.463135 
	C240.594284,230.550125 247.924515,240.338120 250.981918,254.498657 
M223.233780,262.238159 
	C222.441788,257.241669 220.489700,253.018982 215.675003,250.619247 
	C209.810135,247.696075 200.493896,248.793579 195.915268,252.997879 
	C191.196609,257.330780 189.752625,265.683075 192.544937,272.492737 
	C195.112213,278.753601 200.876190,282.019836 208.716675,281.656677 
	C218.456207,281.205597 224.021744,274.159210 223.233780,262.238159 
z"/>
<path fill="#000000" opacity="1.000000" stroke="none" 
	d="
M123.409874,242.149628 
	C137.977036,248.906281 142.551376,260.834137 141.230148,275.521820 
	C139.943527,289.824646 132.204620,300.027374 118.677765,304.457367 
	C102.075729,309.894470 85.465591,309.434784 70.191551,299.689911 
	C59.467175,292.847778 55.285587,282.255188 54.376720,270.022919 
	C54.200630,267.652954 55.194084,266.838135 57.464825,266.560364 
	C65.117462,265.624390 72.766281,267.003235 80.416603,266.414612 
	C83.658066,266.165253 83.242355,269.108826 83.813492,271.000122 
	C86.560905,280.097961 94.356026,284.590851 103.046242,282.004578 
	C108.723190,280.315094 112.500961,275.311127 112.585876,269.368500 
	C112.676208,263.047211 108.811707,257.532227 102.826584,255.736343 
	C98.654648,254.484558 94.336060,254.043457 89.990311,254.354797 
	C86.292519,254.619736 84.856445,252.907120 84.917320,249.365494 
	C85.000320,244.536331 85.035309,239.701721 84.898087,234.874908 
	C84.793083,231.181412 85.996819,229.442734 90.067688,229.514694 
	C94.196358,229.587677 98.386429,229.044296 102.334694,227.586975 
	C108.341339,225.369873 110.499481,221.332504 109.700195,214.037262 
	C109.145477,208.974243 105.456520,205.136795 100.408012,204.371078 
	C94.003578,203.399704 88.269600,205.542236 86.943382,211.081848 
	C85.396645,217.542572 81.688576,217.845230 76.479782,217.496338 
	C71.173264,217.140915 65.818565,217.269836 60.495625,217.470001 
	C56.335655,217.626404 55.294815,215.886948 55.980953,212.006439 
	C59.641987,191.301208 72.749207,179.915268 94.644318,178.746628 
	C104.444595,178.223557 113.735741,179.992264 122.643265,184.448044 
	C142.873734,194.567841 146.267746,227.803482 124.252480,239.552826 
	C123.553589,239.925797 120.834679,240.007721 123.409874,242.149628 
z"/>
<path fill="#000000" opacity="1.000000" stroke="none" 
	d="
M440.385468,193.575119 
	C450.523285,203.709320 451.687561,215.669403 447.340729,227.985275 
	C442.943665,240.443481 432.496613,245.921921 419.941406,247.190292 
	C413.540192,247.836960 407.042480,247.699738 400.678314,245.707428 
	C386.532990,241.279266 377.904175,230.156296 377.905243,215.864960 
	C377.906342,201.159851 386.436523,190.099319 401.387543,186.333984 
	C415.232269,182.847275 428.443634,184.171677 440.385468,193.575119 
M423.403778,207.244888 
	C420.955597,203.711685 417.655640,201.839035 413.284363,202.035995 
	C407.960785,202.275894 403.568451,206.042862 402.436646,211.351089 
	C400.737488,219.320236 403.039673,225.869461 408.581604,228.832031 
	C413.836853,231.641327 419.763458,230.415955 423.003021,225.390976 
	C426.591644,219.824585 426.773926,213.875092 423.403778,207.244888 
z"/>
</svg>